<svg width="45" height="23" viewBox="0 0 45 23" fill="none" xmlns="http://www.w3.org/2000/svg"><rect width="45" height="23" rx="11.5" fill="#0088FF"></rect><path d="M9.57324 16V6.19727H12.6836C13.6315 6.19727 14.3812 6.40462 14.9326 6.81934C15.4886 7.23405 15.7666 7.77409 15.7666 8.43945C15.7666 8.99544 15.6094 9.47852 15.2949 9.88867C14.9805 10.2988 14.5452 10.5905 13.9893 10.7637V10.791C14.6637 10.8685 15.2015 11.1191 15.6025 11.543C16.0081 11.9622 16.2109 12.5091 16.2109 13.1836C16.2109 14.0221 15.8805 14.7012 15.2197 15.2207C14.5589 15.7402 13.7249 16 12.7178 16H9.57324ZM11.1934 7.50293V10.292H12.2461C12.8112 10.292 13.2533 10.1598 13.5723 9.89551C13.8958 9.62663 14.0576 9.24837 14.0576 8.76074C14.0576 7.9222 13.4971 7.50293 12.376 7.50293H11.1934ZM11.1934 11.5977V14.7012H12.5811C13.1872 14.7012 13.6543 14.5622 13.9824 14.2842C14.3151 14.0016 14.4814 13.6143 14.4814 13.1221C14.4814 12.1058 13.7773 11.5977 12.3691 11.5977H11.1934ZM23.7852 12.9307H19.0137C19.0319 13.5778 19.2301 14.0768 19.6084 14.4277C19.9912 14.7786 20.5153 14.9541 21.1807 14.9541C21.9281 14.9541 22.6139 14.7308 23.2383 14.2842V15.5625C22.6003 15.9635 21.7572 16.1641 20.709 16.1641C19.679 16.1641 18.8701 15.8473 18.2822 15.2139C17.6989 14.5758 17.4072 13.6803 17.4072 12.5273C17.4072 11.4382 17.7285 10.5518 18.3711 9.86816C19.0182 9.18001 19.8203 8.83594 20.7773 8.83594C21.7344 8.83594 22.4749 9.14355 22.999 9.75879C23.5231 10.374 23.7852 11.2285 23.7852 12.3223V12.9307ZM22.2539 11.8096C22.2493 11.2399 22.1149 10.7979 21.8506 10.4834C21.5863 10.1644 21.2217 10.0049 20.7568 10.0049C20.3011 10.0049 19.9137 10.1712 19.5947 10.5039C19.2803 10.8366 19.0866 11.2718 19.0137 11.8096H22.2539ZM28.9873 15.9248C28.6774 16.0798 28.2695 16.1572 27.7637 16.1572C26.4056 16.1572 25.7266 15.5055 25.7266 14.2021V10.2441H24.5576V9H25.7266V7.37988L27.3125 6.92871V9H28.9873V10.2441H27.3125V13.7441C27.3125 14.1589 27.3877 14.4551 27.5381 14.6328C27.6885 14.8105 27.9391 14.8994 28.29 14.8994C28.5589 14.8994 28.7913 14.8219 28.9873 14.667V15.9248ZM35.7275 16H34.1895V14.9062H34.1621C33.679 15.7448 32.9704 16.1641 32.0361 16.1641C31.348 16.1641 30.8079 15.9772 30.416 15.6035C30.0286 15.2298 29.835 14.7354 29.835 14.1201C29.835 12.7985 30.596 12.0283 32.1182 11.8096L34.1963 11.5156C34.1963 10.5176 33.7223 10.0186 32.7744 10.0186C31.9404 10.0186 31.1885 10.3057 30.5186 10.8799V9.49219C31.2568 9.05469 32.109 8.83594 33.0752 8.83594C34.8434 8.83594 35.7275 9.70638 35.7275 11.4473V16ZM34.1963 12.5615L32.7266 12.7666C32.2708 12.8258 31.9268 12.9375 31.6943 13.1016C31.4665 13.2611 31.3525 13.5436 31.3525 13.9492C31.3525 14.2454 31.4574 14.4893 31.667 14.6807C31.8812 14.8675 32.166 14.9609 32.5215 14.9609C33.0046 14.9609 33.4033 14.7923 33.7178 14.4551C34.0368 14.1133 34.1963 13.6849 34.1963 13.1699V12.5615Z" fill="white"></path></svg>