<svg width="45" height="44" viewBox="0 0 45 44" fill="none" xmlns="http://www.w3.org/2000/svg">
<circle cx="22.4961" cy="21.875" r="21.875" fill="#1B4695"/>
<path d="M33.5859 31.9183L27.9993 26.3317C29.3418 24.72 30.0112 22.6527 29.8684 20.56C29.7255 18.4672 28.7814 16.5101 27.2323 15.0958C25.6832 13.6815 23.6485 12.9188 21.5515 12.9665C19.4544 13.0141 17.4565 13.8684 15.9732 15.3516C14.49 16.8349 13.6357 18.8328 13.588 20.9299C13.5404 23.027 14.3031 25.0617 15.7174 26.6107C17.1317 28.1598 19.0888 29.104 21.1816 29.2468C23.2743 29.3897 25.3415 28.7202 26.9532 27.3777L32.5399 32.9644L33.5859 31.9183ZM15.0919 21.1282C15.0919 19.8114 15.4824 18.5242 16.214 17.4293C16.9455 16.3344 17.9854 15.481 19.2019 14.9771C20.4185 14.4732 21.7571 14.3414 23.0486 14.5983C24.3401 14.8552 25.5265 15.4893 26.4576 16.4204C27.3887 17.3515 28.0228 18.5378 28.2797 19.8293C28.5366 21.1208 28.4047 22.4595 27.9008 23.676C27.3969 24.8926 26.5435 25.9324 25.4487 26.664C24.3538 27.3956 23.0666 27.786 21.7498 27.786C19.9846 27.7841 18.2923 27.082 17.0441 25.8338C15.796 24.5857 15.0939 22.8933 15.0919 21.1282Z" fill="white"/>
</svg>
