<svg width="15" height="12" viewBox="0 0 15 12" fill="none" xmlns="http://www.w3.org/2000/svg">
<rect x="6.75" width="8.25" height="1.5" rx="0.75" fill="#6E7191"/>
<rect x="6.75" y="10.5" width="8.25" height="1.5" rx="0.75" fill="#6E7191"/>
<path fill-rule="evenodd" clip-rule="evenodd" d="M0.219635 6.53027C-0.0732583 6.23738 -0.0732583 5.7625 0.219635 5.46961L3.65918 1.93934C3.95208 1.64644 4.42695 1.64644 4.71984 1.93934C5.01274 2.23223 5.01274 2.7071 4.71984 3L2.46986 5.24995L14.095 5.24995C14.47 5.24994 14.845 5.62494 14.845 5.99995C14.845 6.37494 14.47 6.74994 14.095 6.74995L2.46986 6.74995L4.71984 9.06435C5.01274 9.35724 5.01274 9.83211 4.71984 10.125C4.42695 10.4179 3.95208 10.4179 3.65918 10.125L0.219635 6.53027Z" fill="#4E4B66"/>
</svg>
