<svg width="15" height="12" viewBox="0 0 15 12" fill="none" xmlns="http://www.w3.org/2000/svg">
<rect x="8.25" y="12" width="8.25" height="1.5" rx="0.75" transform="rotate(-180 8.25 12)" fill="#6E7191"/>
<rect x="8.25" y="1.5" width="8.25" height="1.5" rx="0.75" transform="rotate(-180 8.25 1.5)" fill="#6E7191"/>
<path fill-rule="evenodd" clip-rule="evenodd" d="M14.7804 5.46973C15.0733 5.76262 15.0733 6.2375 14.7804 6.53039L11.3408 10.0607C11.0479 10.3536 10.5731 10.3536 10.2802 10.0607C9.98726 9.76777 9.98726 9.2929 10.2802 9L12.5301 6.75005L0.904965 6.75005C0.529965 6.75005 0.154965 6.37505 0.154965 6.00005C0.154964 5.62505 0.529964 5.25006 0.904965 5.25005L12.5301 5.25005L10.2802 2.93565C9.98726 2.64276 9.98726 2.16788 10.2802 1.87499C10.5731 1.5821 11.0479 1.5821 11.3408 1.87499L14.7804 5.46973Z" fill="#4E4B66"/>
</svg>
