<svg width="52" height="52" viewBox="0 0 52 52" fill="none" xmlns="http://www.w3.org/2000/svg"><rect width="52" height="52" rx="10.4" fill="#C134B1"></rect><rect width="52" height="52" rx="10.4" fill="url(#paint10_linear)"></rect><rect width="52" height="52" rx="10.4" fill="url(#paint11_radial)"></rect><path fill-rule="evenodd" clip-rule="evenodd" d="M17.7545 6.12C19.8873 6.02182 20.5673 6 26 6C31.4327 6 32.1127 6.02364 34.2436 6.12C36.3745 6.21636 37.8291 6.55636 39.1018 7.04909C40.4345 7.55273 41.6436 8.34 42.6436 9.35818C43.6618 10.3564 44.4473 11.5636 44.9491 12.8982C45.4436 14.1709 45.7818 15.6255 45.88 17.7527C45.9782 19.8891 46 20.5691 46 26C46 31.4327 45.9764 32.1127 45.88 34.2455C45.7836 36.3727 45.4436 37.8273 44.9491 39.1C44.4473 40.4347 43.6605 41.644 42.6436 42.6436C41.6436 43.6618 40.4345 44.4473 39.1018 44.9491C37.8291 45.4436 36.3745 45.7818 34.2473 45.88C32.1127 45.9782 31.4327 46 26 46C20.5673 46 19.8873 45.9764 17.7545 45.88C15.6273 45.7836 14.1727 45.4436 12.9 44.9491C11.5653 44.4472 10.356 43.6605 9.35636 42.6436C8.33887 41.6449 7.55148 40.4362 7.04909 39.1018C6.55636 37.8291 6.21818 36.3745 6.12 34.2473C6.02182 32.1109 6 31.4309 6 26C6 20.5673 6.02364 19.8873 6.12 17.7564C6.21636 15.6255 6.55636 14.1709 7.04909 12.8982C7.55222 11.5638 8.34022 10.3551 9.35818 9.35636C10.3564 8.33909 11.5645 7.55172 12.8982 7.04909C14.1709 6.55636 15.6255 6.21818 17.7527 6.12H17.7545ZM34.0818 9.72C31.9727 9.62364 31.34 9.60364 26 9.60364C20.66 9.60364 20.0273 9.62364 17.9182 9.72C15.9673 9.80909 14.9091 10.1345 14.2036 10.4091C13.2709 10.7727 12.6036 11.2036 11.9036 11.9036C11.2401 12.5492 10.7294 13.3351 10.4091 14.2036C10.1345 14.9091 9.80909 15.9673 9.72 17.9182C9.62364 20.0273 9.60364 20.66 9.60364 26C9.60364 31.34 9.62364 31.9727 9.72 34.0818C9.80909 36.0327 10.1345 37.0909 10.4091 37.7964C10.7291 38.6636 11.24 39.4509 11.9036 40.0964C12.5491 40.76 13.3364 41.2709 14.2036 41.5909C14.9091 41.8655 15.9673 42.1909 17.9182 42.28C20.0273 42.3764 20.6582 42.3964 26 42.3964C31.3418 42.3964 31.9727 42.3764 34.0818 42.28C36.0327 42.1909 37.0909 41.8655 37.7964 41.5909C38.7291 41.2273 39.3964 40.7964 40.0964 40.0964C40.76 39.4509 41.2709 38.6636 41.5909 37.7964C41.8655 37.0909 42.1909 36.0327 42.28 34.0818C42.3764 31.9727 42.3964 31.34 42.3964 26C42.3964 20.66 42.3764 20.0273 42.28 17.9182C42.1909 15.9673 41.8655 14.9091 41.5909 14.2036C41.2273 13.2709 40.7964 12.6036 40.0964 11.9036C39.4508 11.2401 38.6649 10.7295 37.7964 10.4091C37.0909 10.1345 36.0327 9.80909 34.0818 9.72ZM23.4455 32.1655C24.8721 32.7593 26.4607 32.8395 27.9399 32.3922C29.4191 31.945 30.6971 30.998 31.5557 29.7132C32.4142 28.4283 32.8001 26.8852 32.6474 25.3475C32.4946 23.8097 31.8127 22.3727 30.7182 21.2818C30.0204 20.5845 29.1768 20.0506 28.2479 19.7184C27.319 19.3863 26.3281 19.2643 25.3464 19.3611C24.3647 19.4579 23.4166 19.7712 22.5706 20.2784C21.7245 20.7856 21.0014 21.4741 20.4533 22.2943C19.9052 23.1145 19.5458 24.046 19.4009 25.0217C19.2561 25.9975 19.3294 26.9933 19.6155 27.9373C19.9017 28.8813 20.3936 29.7502 21.0559 30.4813C21.7181 31.2124 22.5342 31.7876 23.4455 32.1655ZM18.7309 18.7309C19.6855 17.7763 20.8188 17.0191 22.066 16.5025C23.3132 15.9859 24.65 15.72 26 15.72C27.35 15.72 28.6868 15.9859 29.934 16.5025C31.1812 17.0191 32.3145 17.7763 33.2691 18.7309C34.2237 19.6855 34.9809 20.8188 35.4975 22.066C36.0141 23.3132 36.28 24.65 36.28 26C36.28 27.35 36.0141 28.6868 35.4975 29.934C34.9809 31.1812 34.2237 32.3145 33.2691 33.2691C31.3412 35.197 28.7264 36.28 26 36.28C23.2736 36.28 20.6588 35.197 18.7309 33.2691C16.803 31.3412 15.72 28.7264 15.72 26C15.72 23.2736 16.803 20.6588 18.7309 18.7309ZM38.56 17.2509C38.7966 17.0278 38.9859 16.7594 39.1169 16.4618C39.2479 16.1641 39.3178 15.8432 39.3226 15.5181C39.3273 15.1929 39.2668 14.8701 39.1445 14.5687C39.0223 14.2674 38.8408 13.9937 38.6108 13.7637C38.3809 13.5338 38.1071 13.3523 37.8058 13.23C37.5045 13.1078 37.1817 13.0472 36.8565 13.052C36.5313 13.0567 36.2104 13.1266 35.9128 13.2576C35.6151 13.3886 35.3468 13.578 35.1236 13.8145C34.6897 14.2746 34.4521 14.8857 34.4613 15.5181C34.4705 16.1504 34.7258 16.7543 35.173 17.2015C35.6202 17.6487 36.2241 17.9041 36.8565 17.9133C37.4889 17.9225 38.0999 17.6849 38.56 17.2509Z" fill="white"></path><defs><linearGradient id="paint10_linear" x1="4.48276" y1="3.58621" x2="29" y2="33" gradientUnits="userSpaceOnUse"><stop stop-color="#406AC9"></stop><stop offset="1" stop-color="#B531B8" stop-opacity="0"></stop></linearGradient><radialGradient id="paint11_radial" cx="0" cy="0" r="1" gradientUnits="userSpaceOnUse" gradientTransform="translate(12.5517 52) rotate(-56.5355) scale(46.1505)"><stop offset="0.113381" stop-color="#FFD754"></stop><stop offset="0.59375" stop-color="#FF6340"></stop><stop offset="1" stop-color="#F54E53" stop-opacity="0"></stop></radialGradient></defs></svg>