<svg width="51" height="50" viewBox="0 0 51 50" fill="none" xmlns="http://www.w3.org/2000/svg">
<path d="M25.2676 3.125C19.4876 3.19473 13.9641 5.5218 9.87672 9.60914C5.78938 13.6965 3.46231 19.22 3.39258 25C3.46231 30.78 5.78938 36.3035 9.87672 40.3909C13.9641 44.4782 19.4876 46.8053 25.2676 46.875C31.0475 46.8053 36.5711 44.4782 40.6584 40.3909C44.7458 36.3035 47.0728 30.78 47.1426 25C47.0728 19.22 44.7458 13.6965 40.6584 9.60914C36.5711 5.5218 31.0475 3.19473 25.2676 3.125ZM37.7676 26.5625H26.8301V37.5H23.7051V26.5625H12.7676V23.4375H23.7051V12.5H26.8301V23.4375H37.7676V26.5625Z" fill="#1B4695"/>
</svg>
