<svg width="16" height="16" viewBox="0 0 16 16" fill="none" xmlns="http://www.w3.org/2000/svg">
<path d="M6.41797 10.0501C6.29922 10.0501 6.18047 10.0063 6.08672 9.91257C5.57422 9.40007 5.29297 8.71882 5.29297 8.00007C5.29297 6.50632 6.50547 5.29382 7.99922 5.29382C8.71797 5.29382 9.39922 5.57507 9.91172 6.08757C9.99922 6.17507 10.0492 6.29382 10.0492 6.41882C10.0492 6.54382 9.99922 6.66257 9.91172 6.75007L6.74922 9.91257C6.65547 10.0063 6.53672 10.0501 6.41797 10.0501ZM7.99922 6.23132C7.02422 6.23132 6.23047 7.02507 6.23047 8.00007C6.23047 8.31257 6.31172 8.61257 6.46172 8.87507L8.87422 6.46257C8.61172 6.31257 8.31172 6.23132 7.99922 6.23132Z" fill="#A3A7B5"/>
<path d="M3.99844 12.0688C3.89219 12.0688 3.77969 12.0313 3.69219 11.9563C3.02344 11.3875 2.42344 10.6875 1.91094 9.87505C1.24844 8.8438 1.24844 7.16255 1.91094 6.12505C3.43594 3.73755 5.65469 2.36255 7.99844 2.36255C9.37344 2.36255 10.7297 2.83755 11.9172 3.7313C12.1234 3.88755 12.1672 4.1813 12.0109 4.38755C11.8547 4.5938 11.5609 4.63755 11.3547 4.4813C10.3297 3.7063 9.16719 3.30005 7.99844 3.30005C5.97969 3.30005 4.04844 4.51255 2.69844 6.6313C2.22969 7.36255 2.22969 8.63755 2.69844 9.3688C3.16719 10.1 3.70469 10.7313 4.29844 11.2438C4.49219 11.4125 4.51719 11.7063 4.34844 11.9063C4.26094 12.0125 4.12969 12.0688 3.99844 12.0688Z" fill="#A3A7B5"/>
<path d="M8.00059 13.6374C7.16934 13.6374 6.35684 13.4687 5.57559 13.1374C5.33809 13.0374 5.22559 12.7624 5.32559 12.5249C5.42559 12.2874 5.70059 12.1749 5.93809 12.2749C6.60059 12.5562 7.29434 12.6999 7.99434 12.6999C10.0131 12.6999 11.9443 11.4874 13.2943 9.36869C13.7631 8.63744 13.7631 7.36244 13.2943 6.63119C13.1006 6.32494 12.8881 6.03119 12.6631 5.75619C12.5006 5.55619 12.5318 5.26244 12.7318 5.09369C12.9318 4.93119 13.2256 4.95619 13.3943 5.16244C13.6381 5.46244 13.8756 5.78744 14.0881 6.12494C14.7506 7.15619 14.7506 8.83744 14.0881 9.87494C12.5631 12.2624 10.3443 13.6374 8.00059 13.6374Z" fill="#A3A7B5"/>
<path d="M8.43222 10.6687C8.21347 10.6687 8.01347 10.5125 7.96972 10.2875C7.91972 10.0312 8.08847 9.78747 8.34472 9.74372C9.03222 9.61872 9.60722 9.04372 9.73222 8.35622C9.78222 8.09997 10.026 7.93747 10.2822 7.98122C10.5385 8.03122 10.7072 8.27497 10.6572 8.53122C10.4572 9.61247 9.59472 10.4687 8.51972 10.6687C8.48847 10.6625 8.46347 10.6687 8.43222 10.6687Z" fill="#A3A7B5"/>
<path d="M1.74844 14.7187C1.62969 14.7187 1.51094 14.675 1.41719 14.5812C1.23594 14.4 1.23594 14.1 1.41719 13.9187L6.08594 9.24995C6.26719 9.0687 6.56719 9.0687 6.74844 9.24995C6.92969 9.4312 6.92969 9.7312 6.74844 9.91245L2.07969 14.5812C1.98594 14.675 1.86719 14.7187 1.74844 14.7187Z" fill="#A3A7B5"/>
<path d="M9.58047 6.8874C9.46172 6.8874 9.34297 6.84365 9.24922 6.7499C9.06797 6.56865 9.06797 6.26865 9.24922 6.0874L13.918 1.41865C14.0992 1.2374 14.3992 1.2374 14.5805 1.41865C14.7617 1.5999 14.7617 1.8999 14.5805 2.08115L9.91172 6.7499C9.81797 6.84365 9.69922 6.8874 9.58047 6.8874Z" fill="#A3A7B5"/>
</svg>
