<svg width="156" height="156" viewBox="0 0 156 156" fill="none" xmlns="http://www.w3.org/2000/svg">
<circle cx="78" cy="78" r="78" fill="#FFE7E7"/>
<circle cx="77.9994" cy="77.9998" r="43.3333" fill="white"/>
<path d="M47.8952 109.169C43.7564 105.172 40.4552 100.39 38.1841 95.1032C35.9131 89.8164 34.7177 84.1302 34.6677 78.3764C34.6177 72.6226 35.7141 66.9165 37.8929 61.591C40.0717 56.2655 43.2894 51.4272 47.3581 47.3585C51.4267 43.2899 56.265 40.0722 61.5905 37.8934C66.916 35.7145 72.6221 34.6181 78.3759 34.6681C84.1297 34.7181 89.8159 35.9135 95.1027 38.1846C100.39 40.4557 105.171 43.7569 109.169 47.8957C117.062 56.0684 121.43 67.0145 121.331 78.3764C121.232 89.7382 116.675 100.607 108.641 108.641C100.606 116.675 89.7378 121.233 78.3759 121.332C67.014 121.43 56.0679 117.063 47.8952 109.169ZM84.5985 78.5323L96.8618 66.269L90.7518 60.159L78.5318 72.4223L66.2685 60.159L60.1585 66.269L72.4218 78.5323L60.1585 90.7957L66.2685 96.9057L78.5318 84.6423L90.7952 96.9057L96.9052 90.7957L84.6418 78.5323H84.5985Z" fill="#EF3B3B"/>
</svg>
