<svg xmlns="http://www.w3.org/2000/svg" viewBox="0 0 24 24" fill="none">
    <path d="M12 17.2501C14.8995 17.2501 17.25 14.8996 17.25 12.0001C17.25 9.10057 14.8995 6.75006 12 6.75006C9.10051 6.75006 6.75 9.10057 6.75 12.0001C6.75 14.8996 9.10051 17.2501 12 17.2501Z" stroke="#8892AA" strokeWidth="1.3" strokeLinecap="round" strokeLinejoin="round" />
    <path d="M20.2503 11.2501L21.2165 9.80068C21.2795 9.70731 21.3212 9.60121 21.3385 9.48993C21.3559 9.37865 21.3485 9.26492 21.3169 9.1568C21.1346 8.55653 20.8944 7.97541 20.5996 7.42165C20.5456 7.32308 20.4705 7.23764 20.3796 7.17144C20.2888 7.10525 20.1845 7.05992 20.0741 7.0387L18.3643 6.69671L17.3036 5.63607L16.9616 3.9262C16.9404 3.81581 16.8951 3.71147 16.8289 3.62063C16.7627 3.52978 16.6772 3.45468 16.5787 3.40067C16.0249 3.1059 15.4437 2.86568 14.8434 2.6834C14.7353 2.65185 14.6216 2.64449 14.5103 2.66184C14.399 2.67918 14.2929 2.72082 14.1996 2.78378L12.7503 3.74999H11.2503L9.80093 2.78378C9.70756 2.72082 9.60146 2.67918 9.49018 2.66184C9.3789 2.64449 9.26517 2.65185 9.15706 2.6834C8.55678 2.86568 7.97564 3.10589 7.42186 3.40066C7.32327 3.45467 7.23783 3.52978 7.17162 3.62063C7.10542 3.71148 7.06009 3.81583 7.03887 3.92622L6.69697 5.63598L5.63623 6.69671L3.92646 7.03862C3.81607 7.05983 3.71173 7.10515 3.62088 7.17135C3.53004 7.23755 3.45493 7.32299 3.40092 7.42158C3.1061 7.97536 2.86585 8.55651 2.68355 9.15681C2.652 9.26492 2.64464 9.37865 2.66199 9.48993C2.67934 9.60121 2.72098 9.7073 2.78395 9.80067L3.75016 11.25V12.75L2.78394 14.1993C2.72098 14.2927 2.67935 14.3988 2.662 14.5101C2.64465 14.6213 2.65201 14.7351 2.68356 14.8432C2.86581 15.4435 3.10603 16.0246 3.40082 16.5784C3.45483 16.677 3.52994 16.7624 3.62078 16.8286C3.71162 16.8948 3.81596 16.9402 3.92635 16.9614L5.63623 17.3034L6.69687 18.364L7.03879 20.0739C7.06 20.1843 7.10532 20.2886 7.17152 20.3795C7.23772 20.4703 7.32316 20.5454 7.42174 20.5994C7.97549 20.8942 8.55662 21.1345 9.15691 21.3167C9.26501 21.3482 9.37874 21.3556 9.49001 21.3383C9.60127 21.3209 9.70736 21.2793 9.80073 21.2163L11.2502 20.2501H12.7502L14.1996 21.2164C14.2929 21.2793 14.399 21.321 14.5103 21.3383C14.6216 21.3557 14.7353 21.3483 14.8434 21.3168C15.4437 21.1345 16.0248 20.8943 16.5786 20.5995C16.6772 20.5455 16.7626 20.4704 16.8288 20.3796C16.895 20.2887 16.9403 20.1844 16.9615 20.074L17.3035 18.3641L18.3642 17.3034L20.074 16.9615C20.1844 16.9402 20.2888 16.8949 20.3796 16.8287C20.4705 16.7625 20.5456 16.6771 20.5996 16.5785C20.8944 16.0247 21.1346 15.4436 21.3169 14.8434C21.3485 14.7353 21.3559 14.6215 21.3385 14.5102C21.3211 14.399 21.2795 14.2929 21.2165 14.1995L20.2503 12.7501V11.2501Z" stroke="#8892AA" strokeWidth="1.3" strokeLinecap="round" strokeLinejoin="round" />
</svg>