<svg xmlns="http://www.w3.org/2000/svg" viewBox="0 0 24 24" fill="none">
    <path d="M13.4995 20.9984V3.74843C13.4995 3.54952 13.4205 3.35875 13.2798 3.2181C13.1392 3.07745 12.9484 2.99843 12.7495 2.99843H3.74951C3.5506 2.99843 3.35983 3.07745 3.21918 3.2181C3.07853 3.35875 2.99951 3.54952 2.99951 3.74843V20.9984" stroke="#8892AA" strokeWidth="1.3" strokeLinecap="round" strokeLinejoin="round" />
    <path d="M20.9995 20.9984V9.74843C20.9995 9.54952 20.9205 9.35875 20.7798 9.2181C20.6392 9.07745 20.4484 8.99843 20.2495 8.99843H13.4995" stroke="#8892AA" strokeWidth="1.3" strokeLinecap="round" strokeLinejoin="round" />
    <path d="M5.99951 6.74843H8.99951" stroke="#8892AA" strokeWidth="1.3" strokeLinecap="round" strokeLinejoin="round" />
    <path d="M7.49951 14.2484H10.4995" stroke="#8892AA" strokeWidth="1.3" strokeLinecap="round" strokeLinejoin="round" />
    <path d="M5.99951 17.9984H8.99951" stroke="#8892AA" strokeWidth="1.3" strokeLinecap="round" strokeLinejoin="round" />
    <path d="M16.4995 16.4984H17.9995" stroke="#8892AA" strokeWidth="1.3" strokeLinecap="round" strokeLinejoin="round" />
    <path d="M16.4995 12.7484H17.9995" stroke="#8892AA" strokeWidth="1.3" strokeLinecap="round" strokeLinejoin="round" />
</svg>